<svg width="296" height="240" viewBox="0 0 296 240" fill="none" xmlns="http://www.w3.org/2000/svg">
<path d="M152.991 104.191H143.801V135.213H152.991V104.191Z" fill="#E1E1E1"/>
<path d="M168.308 111.827H159.692L154.906 119.082C153.608 120.988 153.43 122.024 153.47 122.995C153.549 124.935 154.248 125.77 155.097 127.195L160.65 135.213H169.648C167.351 132.063 162.717 125.706 162.564 125.477C162.373 125.191 161.224 123.759 161.224 122.709C161.224 121.869 161.862 120.959 162.181 120.609L168.308 111.827Z" fill="#E1E1E1"/>
<path d="M180.562 104C175.201 104 173.095 108.773 173.095 111.827H170.414V118.127H173.095V135.213H182.476V118.127H188.412V111.827H182.285C182.361 110.453 183.274 110.109 183.721 110.109H188.412V104H180.562Z" fill="#E1E1E1"/>
<path fill-rule="evenodd" clip-rule="evenodd" d="M117.569 111.827H135.28C138.535 111.827 141.407 115.454 141.407 118.318V128.722C141.407 130.918 138.918 135.213 134.993 135.213H119.963C118.814 135.213 116.421 133.533 116.421 131.013V124.427C116.421 123.186 118.22 120.704 120.441 120.704H132.599V119.272C132.599 118.891 132.082 118.032 131.163 118.032H117.569V111.827ZM132.599 126.145H125.037C124.654 126.145 123.888 126.527 123.888 127.577C123.888 128.245 124.271 129.009 125.037 129.009H131.738C132.025 129.009 132.599 128.722 132.599 128.245V126.145Z" fill="#E1E1E1"/>
<path fill-rule="evenodd" clip-rule="evenodd" d="M191.283 111.827H208.993C212.248 111.827 215.12 115.454 215.12 118.318V128.722C215.12 130.918 212.631 135.213 208.706 135.213H193.676C192.527 135.213 190.134 133.533 190.134 131.013V124.427C190.134 123.186 191.934 120.704 194.155 120.704H206.313V119.272C206.313 118.891 205.796 118.032 204.877 118.032H191.283V111.827ZM206.313 126.145H198.75C198.367 126.145 197.601 126.527 197.601 127.577C197.601 128.245 197.984 129.009 198.75 129.009H205.451C205.738 129.009 206.313 128.722 206.313 128.245V126.145Z" fill="#E1E1E1"/>
<path fill-rule="evenodd" clip-rule="evenodd" d="M81 111.827H107.805V113.001H82.3171L83.6342 114.174H94.7852C94.6954 114.46 94.5688 114.844 94.3944 115.347H84.9513L86.2684 116.521H93.9787C93.875 116.808 93.7612 117.12 93.6366 117.459C93.6073 117.538 93.5781 117.617 93.549 117.694H87.5855L88.9026 118.867H93.0795C92.8955 119.298 92.7152 119.687 92.5372 120.041H90.2197L91.5368 121.214H91.8858C91.3131 122.145 90.7484 122.821 90.1449 123.544C90.0338 123.677 89.9214 123.812 89.8073 123.95C88.4671 125.572 84.925 128.436 84.4463 128.818C83.9677 129.2 84.1592 129.581 84.4463 129.772C84.452 129.776 84.4576 129.78 84.4633 129.784C84.7458 129.973 85.0735 130.193 87.7012 127.386C89.1014 125.89 90.8226 123.364 92.1773 121.214H94.498C94.5913 121.617 94.6876 122.007 94.7868 122.388H92.8539L94.171 123.561H95.1096C95.4272 124.659 95.7682 125.688 96.1256 126.718C94.5939 125.668 91.9134 124.427 90.5732 124.236C93.3494 125.286 96.3667 128.109 96.9872 128.913C97.021 128.957 97.0547 129.001 97.0881 129.044C98.9497 131.459 100.298 133.207 103.401 133.113C101.647 131.892 100.191 130.055 99.0037 127.866L99.4394 128.254H107.805V129.428H100.756L102.074 130.601H107.805V131.775H103.391L104.708 132.948H107.805V134.121H106.025L107.342 135.295H81V111.827ZM98.5967 127.081H107.805V125.908H98.0508C98.2253 126.307 98.4072 126.699 98.5967 127.081ZM97.5678 124.734H107.805V123.561H97.1381C97.275 123.957 97.4182 124.349 97.5678 124.734ZM96.7548 122.388H107.805V121.214H96.4127C96.5211 121.608 96.6351 122 96.7548 122.388ZM96.1077 120.041H107.805V118.867H95.8368C95.9219 119.26 96.0121 119.651 96.1077 120.041ZM93.6058 118.867H94.0187C94.0907 119.271 94.1654 119.662 94.2427 120.041H92.9043C93.1642 119.614 93.4004 119.218 93.6058 118.867ZM95.5977 117.694H107.805V116.521H95.3886C95.4533 116.911 95.523 117.302 95.5977 117.694ZM95.2085 115.347H107.805V114.174H95.0566C95.1023 114.563 95.1529 114.954 95.2085 115.347Z" fill="#E1E1E1"/>
</svg>
