<svg width="296" height="240" viewBox="0 0 296 240" fill="none" xmlns="http://www.w3.org/2000/svg">
<g clip-path="url(#clip0_747_3505)">
<g filter="url(#filter0_d_747_3505)">
<path d="M76.6043 115.279C77.1566 115.279 77.6043 114.831 77.6043 114.279V113.703C77.6043 113.151 77.1566 112.703 76.6043 112.703H56.3242C55.7719 112.703 55.3242 113.151 55.3242 113.703V126.298C55.3242 126.85 55.7719 127.298 56.3242 127.298H58.5394C59.0917 127.298 59.5394 126.85 59.5394 126.298V121.859C59.5394 121.307 59.9871 120.859 60.5394 120.859H71.5993C71.961 120.859 72.2944 120.664 72.4714 120.348L72.5535 120.202C72.9275 119.535 72.4457 118.713 71.6814 118.713H60.5394C59.9871 118.713 59.5394 118.265 59.5394 117.713V116.279C59.5394 115.726 59.9871 115.279 60.5394 115.279H76.6043Z" fill="#363636"/>
<path d="M215.898 113.132C215.346 113.132 214.898 113.58 214.898 114.132V126.079C214.898 126.633 215.349 127.081 215.903 127.079L217.846 127.07C218.397 127.068 218.842 126.621 218.842 126.07V118.322C218.842 117.543 219.692 117.063 220.359 117.466L236.036 126.939C236.193 127.033 236.371 127.083 236.554 127.083H239.189C239.741 127.083 240.189 126.635 240.189 126.083V114.132C240.189 113.58 239.741 113.132 239.189 113.132H237.448C236.896 113.132 236.448 113.58 236.448 114.132V121.644C236.448 122.427 235.59 122.906 234.924 122.496L219.957 113.281C219.799 113.184 219.617 113.132 219.432 113.132H215.898Z" fill="#363636"/>
<path fill-rule="evenodd" clip-rule="evenodd" d="M185.341 113.132C179.799 113.132 171.541 114.85 171.542 120.001C171.543 125.152 179.799 126.869 185.341 126.869H188.478C194.02 126.869 201.65 125.152 201.65 120.001C201.65 114.85 194.02 113.132 188.478 113.132H185.341ZM185.44 114.823C180.861 114.823 176.147 116.352 176.147 120C176.147 123.649 180.861 125.177 185.44 125.177H188.031C192.61 125.177 197.054 123.649 197.054 120C197.054 116.352 192.61 114.823 188.031 114.823H185.44Z" fill="#363636"/>
<path fill-rule="evenodd" clip-rule="evenodd" d="M103.016 113.132C97.473 113.132 89.2154 114.85 89.2161 120.001C89.2169 125.152 97.473 126.869 103.016 126.869H106.152C111.695 126.869 119.324 125.152 119.324 120.001C119.324 114.85 111.695 113.132 106.152 113.132H103.016ZM103.114 114.823C98.5356 114.823 93.8378 116.352 93.8378 120C93.8378 123.649 98.5356 125.177 103.114 125.177H105.705C110.284 125.177 114.745 123.649 114.745 120C114.745 116.352 110.284 114.823 105.705 114.823H103.114Z" fill="#363636"/>
<path d="M134.012 113.132C133.459 113.132 133.012 113.58 133.012 114.132V126.079C133.012 126.633 133.462 127.081 134.016 127.079L135.96 127.07C136.51 127.068 136.955 126.621 136.955 126.07V118.322C136.955 117.543 137.806 117.063 138.472 117.466L154.15 126.939C154.306 127.033 154.485 127.083 154.667 127.083H157.303C157.855 127.083 158.303 126.635 158.303 126.083V114.132C158.303 113.58 157.855 113.132 157.303 113.132H155.561C155.009 113.132 154.561 113.58 154.561 114.132V121.644C154.561 122.427 153.703 122.906 153.037 122.496L138.07 113.281C137.912 113.184 137.731 113.132 137.546 113.132H134.012Z" fill="#363636"/>
</g>
</g>
<defs>
<filter id="filter0_d_747_3505" x="-23.6758" y="33.7031" width="342.865" height="172.595" filterUnits="userSpaceOnUse" color-interpolation-filters="sRGB">
<feFlood flood-opacity="0" result="BackgroundImageFix"/>
<feColorMatrix in="SourceAlpha" type="matrix" values="0 0 0 0 0 0 0 0 0 0 0 0 0 0 0 0 0 0 127 0" result="hardAlpha"/>
<feOffset/>
<feGaussianBlur stdDeviation="39.5"/>
<feComposite in2="hardAlpha" operator="out"/>
<feColorMatrix type="matrix" values="0 0 0 0 1 0 0 0 0 1 0 0 0 0 1 0 0 0 0.25 0"/>
<feBlend mode="normal" in2="BackgroundImageFix" result="effect1_dropShadow_747_3505"/>
<feBlend mode="normal" in="SourceGraphic" in2="effect1_dropShadow_747_3505" result="shape"/>
</filter>
<clipPath id="clip0_747_3505">
<rect width="296" height="240" fill="white"/>
</clipPath>
</defs>
</svg>
