<svg width="296" height="240" viewBox="0 0 296 240" fill="none" xmlns="http://www.w3.org/2000/svg">
<path d="M118.147 108.466H111.338V131.45H118.147V108.466Z" fill="#E1E1E1"/>
<path d="M129.495 114.123H123.112L119.565 119.498C118.604 120.91 118.472 121.678 118.501 122.397C118.56 123.834 119.078 124.453 119.707 125.509L123.821 131.45H130.488C128.786 129.116 125.353 124.406 125.239 124.236C125.098 124.024 124.246 122.963 124.246 122.185C124.246 121.563 124.719 120.889 124.956 120.629L129.495 114.123Z" fill="#E1E1E1"/>
<path d="M138.573 108.324C134.602 108.324 133.041 111.86 133.041 114.123H131.055V118.791H133.041V131.45H139.992V118.791H144.389V114.123H139.85C139.907 113.105 140.583 112.85 140.914 112.85H144.389V108.324H138.573Z" fill="#E1E1E1"/>
<path fill-rule="evenodd" clip-rule="evenodd" d="M91.9043 114.123H105.026C107.437 114.123 109.565 116.81 109.565 118.932V126.64C109.565 128.267 107.721 131.449 104.813 131.449H93.6775C92.8263 131.449 91.0532 130.205 91.0532 128.338V123.458C91.0532 122.539 92.3866 120.7 94.0321 120.7H103.04V119.639C103.04 119.356 102.657 118.72 101.976 118.72H91.9043V114.123ZM103.04 124.731H97.4365C97.1528 124.731 96.5854 125.014 96.5854 125.792C96.5854 126.287 96.8691 126.853 97.4365 126.853H102.401C102.614 126.853 103.04 126.64 103.04 126.287V124.731Z" fill="#E1E1E1"/>
<path fill-rule="evenodd" clip-rule="evenodd" d="M146.517 114.123H159.639C162.05 114.123 164.178 116.81 164.178 118.932V126.64C164.178 128.267 162.334 131.449 159.426 131.449H148.291C147.439 131.449 145.666 130.205 145.666 128.338V123.458C145.666 122.539 147 120.7 148.645 120.7H157.653V119.639C157.653 119.356 157.27 118.72 156.589 118.72H146.517V114.123ZM157.653 124.731H152.05C151.766 124.731 151.199 125.014 151.199 125.792C151.199 126.287 151.482 126.853 152.05 126.853H157.014C157.227 126.853 157.653 126.64 157.653 126.287V124.731Z" fill="#E1E1E1"/>
<path fill-rule="evenodd" clip-rule="evenodd" d="M64.8105 114.123H84.6698V114.992H65.7864L66.7622 115.862H75.0238C74.9573 116.074 74.8635 116.358 74.7342 116.731H67.738L68.7138 117.6H74.4263C74.3494 117.813 74.2651 118.045 74.1728 118.296C74.1511 118.354 74.1295 118.413 74.1079 118.47H69.6896L70.6654 119.339H73.7601C73.6237 119.658 73.4901 119.946 73.3583 120.208H71.6413L72.6171 121.078H72.8757C72.4514 121.768 72.033 122.269 71.5859 122.804C71.5036 122.902 71.4202 123.002 71.3357 123.104C70.3428 124.307 67.7185 126.428 67.3639 126.711C67.0093 126.994 67.1511 127.277 67.3639 127.418C67.3681 127.421 67.3723 127.424 67.3765 127.427C67.5857 127.567 67.8285 127.73 69.7754 125.65C70.8127 124.542 72.0879 122.67 73.0916 121.078H74.811C74.8801 121.376 74.9515 121.665 75.0249 121.947H73.5929L74.5687 122.816H75.2641C75.4994 123.63 75.7521 124.393 76.0169 125.155C74.8821 124.377 72.8961 123.458 71.9032 123.317C73.96 124.095 76.1955 126.186 76.6552 126.782C76.6803 126.814 76.7052 126.847 76.73 126.879C78.1092 128.668 79.108 129.963 81.4073 129.894C80.1077 128.989 79.0285 127.628 78.1492 126.006L78.472 126.294H84.6698V127.163H79.4478L80.4236 128.032H84.6698V128.902H81.3994L82.3753 129.771H84.6698V130.64H83.3511L84.3269 131.51H64.8105V114.123ZM77.8477 125.424H84.6698V124.555H77.4432C77.5725 124.851 77.7073 125.141 77.8477 125.424ZM77.0854 123.686H84.6698V122.816H76.767C76.8685 123.11 76.9746 123.4 77.0854 123.686ZM76.4831 121.947H84.6698V121.078H76.2296C76.3099 121.37 76.3944 121.66 76.4831 121.947ZM76.0036 120.208H84.6698V119.339H75.8029C75.8659 119.63 75.9328 119.92 76.0036 120.208ZM74.15 119.339H74.4559C74.5092 119.638 74.5646 119.928 74.6218 120.208H73.6303C73.8228 119.892 73.9978 119.599 74.15 119.339ZM75.6257 118.47H84.6698V117.6H75.4709C75.5188 117.89 75.5704 118.18 75.6257 118.47ZM75.3374 116.731H84.6698V115.862H75.2249C75.2587 116.15 75.2962 116.44 75.3374 116.731Z" fill="#E1E1E1"/>
<path d="M172.707 131.428V113.955H179.901C181.205 113.955 182.33 114.211 183.277 114.723C184.23 115.229 184.964 115.937 185.48 116.847C185.996 117.752 186.253 118.804 186.253 120.004C186.253 121.21 185.99 122.265 185.463 123.169C184.941 124.068 184.196 124.765 183.226 125.26C182.257 125.755 181.106 126.002 179.774 126.002H175.335V122.675H178.991C179.626 122.675 180.156 122.564 180.582 122.342C181.012 122.12 181.338 121.81 181.559 121.412C181.781 121.008 181.891 120.539 181.891 120.004C181.891 119.464 181.781 118.997 181.559 118.605C181.338 118.207 181.012 117.9 180.582 117.683C180.151 117.467 179.621 117.359 178.991 117.359H176.916V131.428H172.707Z" fill="#E1E1E1"/>
<path d="M192.487 113.955V131.428H188.328V113.955H192.487Z" fill="#E1E1E1"/>
<path d="M198.816 131.65C197.982 131.65 197.242 131.511 196.596 131.232C195.956 130.948 195.448 130.521 195.074 129.952C194.706 129.378 194.521 128.658 194.521 127.794C194.521 127.066 194.649 126.451 194.904 125.951C195.159 125.45 195.511 125.044 195.958 124.731C196.406 124.418 196.922 124.182 197.506 124.023C198.09 123.858 198.714 123.747 199.377 123.69C200.12 123.622 200.718 123.55 201.171 123.477C201.625 123.397 201.954 123.286 202.158 123.144C202.367 122.996 202.472 122.788 202.472 122.521V122.478C202.472 122.04 202.322 121.702 202.022 121.463C201.721 121.224 201.316 121.105 200.806 121.105C200.256 121.105 199.813 121.224 199.479 121.463C199.144 121.702 198.932 122.032 198.841 122.453L195.006 122.316C195.119 121.52 195.411 120.809 195.882 120.183C196.358 119.552 197.01 119.057 197.838 118.699C198.671 118.335 199.672 118.153 200.84 118.153C201.673 118.153 202.441 118.252 203.144 118.451C203.847 118.645 204.459 118.929 204.981 119.305C205.502 119.674 205.905 120.129 206.188 120.67C206.478 121.21 206.622 121.827 206.622 122.521V131.428H202.71V129.602H202.608C202.376 130.046 202.078 130.421 201.715 130.729C201.358 131.036 200.936 131.266 200.448 131.42C199.966 131.573 199.422 131.65 198.816 131.65ZM200.1 128.92C200.548 128.92 200.95 128.829 201.307 128.647C201.67 128.465 201.959 128.215 202.175 127.896C202.39 127.572 202.498 127.196 202.498 126.77V125.524C202.379 125.587 202.234 125.644 202.064 125.695C201.9 125.746 201.718 125.794 201.52 125.84C201.321 125.885 201.117 125.925 200.908 125.959C200.698 125.993 200.497 126.025 200.304 126.053C199.913 126.116 199.578 126.212 199.3 126.343C199.028 126.474 198.818 126.645 198.671 126.855C198.529 127.06 198.459 127.304 198.459 127.589C198.459 128.021 198.612 128.351 198.918 128.579C199.23 128.806 199.624 128.92 200.1 128.92Z" fill="#E1E1E1"/>
<path d="M220.568 122.325L216.75 122.427C216.71 122.154 216.603 121.912 216.427 121.702C216.251 121.486 216.022 121.318 215.738 121.199C215.46 121.073 215.137 121.011 214.769 121.011C214.287 121.011 213.876 121.108 213.536 121.301C213.201 121.494 213.037 121.756 213.042 122.086C213.037 122.342 213.139 122.564 213.349 122.751C213.564 122.939 213.947 123.09 214.497 123.204L217.014 123.681C218.318 123.932 219.287 124.347 219.922 124.927C220.563 125.507 220.886 126.275 220.891 127.231C220.886 128.129 220.619 128.911 220.092 129.577C219.57 130.242 218.856 130.76 217.949 131.13C217.042 131.494 216.005 131.676 214.837 131.676C212.972 131.676 211.5 131.292 210.423 130.524C209.352 129.75 208.74 128.715 208.586 127.418L212.694 127.316C212.784 127.794 213.02 128.158 213.4 128.408C213.779 128.658 214.264 128.783 214.854 128.783C215.387 128.783 215.82 128.684 216.155 128.485C216.489 128.286 216.659 128.021 216.665 127.691C216.659 127.395 216.529 127.159 216.274 126.983C216.019 126.801 215.619 126.659 215.075 126.557L212.796 126.121C211.486 125.883 210.511 125.442 209.871 124.799C209.23 124.151 208.912 123.326 208.918 122.325C208.912 121.449 209.145 120.701 209.615 120.081C210.086 119.455 210.755 118.977 211.622 118.648C212.49 118.318 213.513 118.153 214.692 118.153C216.461 118.153 217.856 118.525 218.876 119.27C219.896 120.01 220.461 121.028 220.568 122.325Z" fill="#E1E1E1"/>
<path d="M230.311 118.323V121.395H222.071V118.323H230.311ZM223.798 115.184H227.956V127.307C227.956 127.563 227.996 127.771 228.075 127.93C228.16 128.084 228.282 128.195 228.441 128.263C228.599 128.325 228.789 128.357 229.01 128.357C229.169 128.357 229.336 128.343 229.512 128.314C229.693 128.28 229.83 128.252 229.92 128.229L230.55 131.24C230.351 131.297 230.07 131.368 229.708 131.454C229.35 131.539 228.922 131.593 228.424 131.616C227.448 131.661 226.612 131.548 225.915 131.275C225.223 130.996 224.693 130.564 224.325 129.978C223.962 129.392 223.786 128.655 223.798 127.768V115.184Z" fill="#E1E1E1"/>
<path d="M166.689 113.157V110.379H168.048C168.223 110.379 168.384 110.416 168.53 110.489C168.678 110.561 168.794 110.667 168.88 110.805C168.967 110.94 169.011 111.106 169.011 111.302C169.011 111.497 168.966 111.664 168.876 111.802C168.785 111.94 168.665 112.046 168.514 112.118C168.364 112.189 168.197 112.224 168.014 112.224H167.084V111.701H167.863C167.969 111.701 168.059 111.667 168.134 111.599C168.212 111.531 168.251 111.431 168.251 111.298C168.251 111.16 168.212 111.062 168.134 111.004C168.059 110.944 167.97 110.914 167.867 110.914H167.412V113.157H166.689ZM168.462 111.874L169.094 113.157H168.304L167.713 111.874H168.462ZM167.777 114.813C167.36 114.813 166.97 114.735 166.606 114.58C166.242 114.424 165.922 114.209 165.646 113.933C165.37 113.657 165.155 113.337 164.999 112.973C164.843 112.609 164.766 112.219 164.766 111.802C164.766 111.386 164.843 110.995 164.999 110.632C165.155 110.268 165.37 109.948 165.646 109.672C165.922 109.396 166.242 109.18 166.606 109.024C166.97 108.869 167.36 108.791 167.777 108.791C168.193 108.791 168.583 108.869 168.947 109.024C169.311 109.18 169.631 109.396 169.907 109.672C170.183 109.948 170.399 110.268 170.555 110.632C170.71 110.995 170.788 111.386 170.788 111.802C170.788 112.219 170.71 112.609 170.555 112.973C170.399 113.337 170.183 113.657 169.907 113.933C169.631 114.209 169.311 114.424 168.947 114.58C168.583 114.735 168.193 114.813 167.777 114.813ZM167.777 114.019C168.188 114.019 168.561 113.92 168.895 113.722C169.231 113.521 169.498 113.254 169.696 112.92C169.895 112.584 169.994 112.211 169.994 111.802C169.994 111.393 169.893 111.022 169.693 110.688C169.494 110.352 169.227 110.085 168.891 109.886C168.557 109.686 168.186 109.585 167.777 109.585C167.37 109.585 166.999 109.686 166.663 109.886C166.326 110.085 166.059 110.352 165.861 110.688C165.663 111.022 165.564 111.393 165.564 111.802C165.564 112.211 165.663 112.584 165.861 112.92C166.059 113.254 166.326 113.521 166.663 113.722C166.999 113.92 167.37 114.019 167.777 114.019Z" fill="#E1E1E1"/>
</svg>
