<svg width="189" height="74" viewBox="0 0 189 74" fill="none" xmlns="http://www.w3.org/2000/svg">
<path d="M188.049 33.6785V54.8991H181.369V33.7902C181.369 31.43 181.099 29.4131 180.558 27.7396C180.024 26.056 179.248 24.6784 178.24 23.6069C177.21 22.5193 175.926 21.7055 174.503 21.2391C173.02 20.7227 171.336 20.4635 169.449 20.4615C167.704 20.4477 165.973 20.7871 164.362 21.4595C162.816 22.1056 161.417 23.059 160.249 24.2621C159.05 25.5024 158.114 26.9727 157.497 28.5845C156.809 30.364 156.467 32.2587 156.488 34.1668V54.8991H149.871V15.7472H155.353L155.915 21.0783C156.749 20.1503 157.67 19.305 158.667 18.5543C159.736 17.7445 160.89 17.0542 162.109 16.4956C163.372 15.9078 164.692 15.4508 166.048 15.1319C167.45 14.7968 168.887 14.6293 170.328 14.6329C176.308 14.6329 180.758 16.2359 183.678 19.4421C186.582 22.6687 188.048 27.4014 188.048 33.6769" fill="#141515"/>
<path d="M133.344 4.47114C133.337 3.88013 133.442 3.29403 133.652 2.75017C133.862 2.2063 134.173 1.71661 134.564 1.31227C135.387 0.445266 136.468 0 137.815 0C139.162 0 140.256 0.445266 141.094 1.31227C141.489 1.714 141.804 2.20278 142.017 2.74695C142.23 3.29112 142.337 3.87854 142.331 4.47114C142.339 5.07154 142.234 5.66726 142.021 6.21998C141.808 6.77269 141.492 7.27017 141.094 7.68042C140.255 8.54071 139.156 8.98765 137.774 8.98765C136.485 8.98765 135.41 8.54071 134.589 7.68042C134.188 7.27216 133.871 6.77509 133.657 6.22193C133.444 5.66878 133.339 5.07209 133.35 4.47114" fill="#D2F4FB"/>
<path d="M141.116 15.7471H134.453V54.899H141.116V15.7471Z" fill="#141515"/>
<path d="M127.584 13.9426H131.955L131.913 18.735H128.856C127.91 18.733 126.974 18.9247 126.105 19.2982C125.283 19.6415 124.493 20.0585 123.746 20.5442C124.686 21.7501 125.426 23.1001 125.937 24.5422C126.448 25.9802 126.706 27.496 126.701 29.0223C126.709 31.0743 126.257 33.102 125.38 34.9566C124.494 36.8091 123.226 38.4524 121.66 39.778C120.067 41.125 118.144 42.2041 115.906 42.9924C113.668 43.7806 111.195 44.1878 108.483 44.1878C106.547 44.2007 104.618 43.9667 102.742 43.4914C101.055 43.065 99.4318 42.4176 97.9143 41.5658C97.3512 42.2361 96.9173 43.0053 96.6349 43.8342C96.3748 44.5483 96.2373 45.3013 96.2283 46.0613C96.2283 46.9491 96.4377 47.6577 96.8779 48.1567C97.3177 48.6572 97.8751 49.0402 98.4998 49.271C99.1748 49.5165 99.8806 49.6669 100.597 49.7179C101.328 49.7577 101.994 49.7807 102.584 49.7807H113.054C118.111 49.7807 121.992 50.6843 124.695 52.4914C127.418 54.3007 128.767 56.8706 128.767 60.2242C128.784 62.177 128.283 64.0993 127.314 65.7942C126.286 67.5353 124.874 69.018 123.187 70.1289C121.416 71.3391 119.288 72.2789 116.802 72.9483C114.304 73.634 111.546 73.9754 108.492 73.9754C105.815 73.9859 103.142 73.7533 100.507 73.2805C98.0213 72.8213 95.8476 72.085 93.9766 71.0917C92.1056 70.0983 90.6397 68.8233 89.5666 67.2513C88.4936 65.6794 87.957 63.8227 87.957 61.6171C87.9604 60.7913 88.1014 59.9718 88.3743 59.1925C88.6688 58.3902 89.041 57.6187 89.4856 56.889C89.9495 56.1434 90.4839 55.4443 91.0815 54.8012C91.6602 54.1642 92.2796 53.5655 92.9357 53.0088C90.8721 51.6052 89.8234 49.6414 89.8234 47.1373C89.8352 45.4914 90.2448 43.8728 91.0173 42.4199C91.7759 40.9329 92.7597 39.5724 93.9338 38.3867C92.7994 37.1184 91.8951 35.6612 91.2619 34.081C90.639 32.4679 90.3247 30.7518 90.3355 29.0223C90.3237 26.9861 90.7754 24.9739 91.6562 23.1386C92.536 21.2789 93.7927 19.6228 95.3463 18.2758C97.034 16.8351 98.9776 15.7254 101.075 15.0048C103.317 14.1885 105.79 13.7803 108.492 13.7803C110.608 13.7626 112.715 14.0482 114.75 14.6283C116.576 15.1558 118.317 15.9429 119.92 16.9656C120.313 16.6395 120.753 16.2982 121.28 15.9324C121.836 15.5613 122.421 15.2372 123.031 14.9635C123.708 14.65 124.415 14.4029 125.14 14.2257C125.941 14.0312 126.762 13.9361 127.586 13.9426H127.584ZM112.109 54.7767H99.9932C99.0152 54.7812 98.0383 54.7075 97.072 54.5563C96.183 55.3525 95.411 56.2708 94.7792 57.2838C94.1095 58.3647 93.7631 59.6151 93.781 60.887C93.781 62.3885 94.1754 63.6421 94.958 64.6462C95.7406 65.6503 96.7923 66.4385 98.139 67.0309C99.4857 67.6233 101.03 68.0227 102.797 68.2722C104.661 68.5276 106.541 68.6518 108.423 68.6442C110.322 68.6652 112.216 68.4488 114.061 67.9998C115.581 67.6427 117.04 67.0635 118.391 66.2809C119.59 65.5492 120.531 64.686 121.178 63.6788C121.803 62.7346 122.14 61.6281 122.146 60.4951C122.146 59.1313 121.815 58.0859 121.149 57.3267C120.465 56.5579 119.601 55.9715 118.634 55.6201C117.586 55.2214 116.485 54.979 115.366 54.9007C114.191 54.8195 113.101 54.7675 112.11 54.7675L112.109 54.7767ZM96.8107 28.981C96.7987 30.3899 97.1082 31.783 97.7156 33.054C98.2976 34.3059 99.1391 35.4194 100.184 36.3204C101.278 37.2706 102.54 38.0087 103.903 38.4969C105.389 39.0289 106.956 39.2938 108.533 39.2791C110.116 39.2923 111.689 39.0276 113.18 38.4969C114.541 38.0044 115.8 37.2668 116.895 36.3204C117.935 35.4133 118.777 34.3014 119.368 33.054C119.976 31.7833 120.286 30.39 120.273 28.981C120.282 27.593 119.972 26.2215 119.368 24.9723C118.768 23.7397 117.927 22.6404 116.895 21.7396C115.804 20.7886 114.544 20.0523 113.18 19.5692C111.69 19.033 110.117 18.7656 108.533 18.7794C106.955 18.7642 105.387 19.0316 103.903 19.5692C102.537 20.048 101.274 20.7848 100.184 21.7396C99.1461 22.6356 98.3054 23.7381 97.7156 24.9769C97.1122 26.2264 96.8026 27.5977 96.8107 28.9856" fill="#141515"/>
<path d="M75.4613 4.47114C75.4541 3.88009 75.559 3.29389 75.7691 2.74998C75.9792 2.20608 76.2901 1.71642 76.6817 1.31227C77.5024 0.445266 78.584 0 79.9311 0C81.2781 0 82.3719 0.445266 83.2109 1.31227C83.6065 1.714 83.9211 2.20278 84.1342 2.74695C84.3473 3.29112 84.4543 3.87854 84.4481 4.47114C84.4566 5.07154 84.3509 5.66726 84.1378 6.21998C83.9248 6.77269 83.609 7.27017 83.2109 7.68042C82.3719 8.54071 81.2796 8.98765 79.8914 8.98765C78.6023 8.98765 77.5253 8.54071 76.7046 7.68042C76.3043 7.27207 75.987 6.77495 75.7738 6.22179C75.5605 5.66863 75.4561 5.07198 75.4674 4.47114" fill="#D2F4FB"/>
<path d="M83.2294 15.7471H76.5723V54.899H83.2294V15.7471Z" fill="#141515"/>
<path d="M72.7254 15.7471V21.6584H68.4316C66.5754 21.6363 64.7291 21.9329 62.973 22.5354C61.386 23.0911 59.943 23.9947 58.7495 25.1803C57.5445 26.4271 56.6163 27.9147 56.0255 29.5457C55.3713 31.2738 55.0579 33.2942 55.0579 35.5856V54.899H48.4238V15.7471H53.9115L54.5886 21.816C55.9506 20.0742 57.7697 18.6185 60.0305 17.4752C62.2912 16.3318 65.0014 15.7471 68.132 15.7471H72.7254Z" fill="#141515"/>
<path d="M6.67589 35.3224C6.64998 37.3546 7.04015 39.3706 7.82234 41.246C8.55031 43.0046 9.6178 44.6019 10.9636 45.9465C12.3001 47.2871 13.8896 48.348 15.6396 49.0675C19.3169 50.5541 23.4267 50.5541 27.104 49.0675C28.8616 48.3556 30.4594 47.2991 31.8034 45.9602C33.1474 44.6212 34.2106 43.0267 34.9305 41.2705C35.7066 39.3845 36.0985 37.3622 36.083 35.3224C36.098 33.2961 35.706 31.2874 34.9305 29.4157C34.1953 27.6455 33.1203 26.037 31.7663 24.6815C29.6601 22.6559 27.013 21.2847 24.145 20.7338C21.2771 20.183 18.3111 20.4759 15.6059 21.5774C13.8657 22.2974 12.2833 23.3519 10.9483 24.6815C9.57105 26.0854 8.48508 27.7485 7.7531 29.5749C7.02111 31.4012 6.65759 33.3547 6.68353 35.3224H6.67589ZM0.00815663 35.3224C-0.0087274 32.5982 0.519099 29.8982 1.56054 27.3814C2.60198 24.8647 4.13596 22.5821 6.07209 20.6682C8.01924 18.7718 10.316 17.2725 12.8346 16.2539C18.2801 14.1029 24.3382 14.1029 29.7837 16.2539C32.3041 17.2681 34.6012 18.7679 36.5446 20.6682C38.4934 22.5781 40.0421 24.858 41.1004 27.3745C42.1586 29.891 42.7051 32.5935 42.7078 35.324C42.7105 38.0545 42.1694 40.7581 41.1161 43.2766C40.0629 45.7952 38.5186 48.0782 36.5737 49.992C34.6147 51.8871 32.3093 53.3864 29.7837 54.4079C24.3382 56.559 18.2801 56.559 12.8346 54.4079C10.3353 53.4039 8.05846 51.9159 6.13446 50.0293C4.21046 48.1426 2.67714 45.8944 1.62235 43.4133C0.532877 40.8591 -0.0192214 38.1075 0.000510853 35.3301" fill="#141515"/>
<path d="M8.66328 57.267C8.71978 57.2466 8.77746 57.2298 8.83601 57.2165C9.60031 57.1108 10.3646 57.042 11.1121 56.895C12.3398 56.6398 13.5395 56.264 14.6936 55.7731C16.0267 55.2422 17.3154 54.6055 18.5472 53.869C19.472 53.2996 20.409 52.747 21.2987 52.1332C22.1883 51.5195 23.0948 50.8444 23.9584 50.1572C24.7655 49.5174 25.5492 48.8485 26.3094 48.1505C27.2663 47.2689 28.2094 46.3674 29.119 45.4367C29.8512 44.6852 30.5543 43.9061 31.2177 43.0887C32.1242 41.9744 33.0199 40.8464 33.8469 39.6739C34.7748 38.3576 35.6323 36.9922 36.4944 35.633C36.831 35.0827 37.1397 34.5156 37.4192 33.934C37.9267 32.9162 38.4633 31.9105 38.8959 30.8621C39.4171 29.5932 39.891 28.2998 40.296 26.988C40.6171 25.9472 40.8219 24.8681 41.0435 23.7982C41.1521 23.2778 41.1826 22.7421 41.2499 22.2125C41.2499 22.1865 41.282 22.1635 41.2973 22.139V19.6227C41.2484 19.3165 41.2071 19.0104 41.1444 18.7043C40.9289 17.6022 40.5651 16.5614 39.8482 15.6752C39.0845 14.7516 38.0313 14.114 36.8598 13.866C36.6807 13.8217 36.4989 13.7895 36.3156 13.7695C36.1245 13.7496 35.9319 13.7481 35.7408 13.7466C35.2823 13.7466 34.8344 13.7389 34.3819 13.7466C33.9233 13.7763 33.4675 13.8402 33.0184 13.9379C31.994 14.1405 30.9905 14.4377 30.0208 14.8257C29.8114 14.9053 29.6035 14.9925 29.3482 15.0951C29.7808 15.2711 30.5619 15.5772 30.5619 15.5772C30.5619 15.5772 30.8891 15.5313 31.0557 15.5114C31.5846 15.4456 32.112 15.3583 32.6424 15.3262C33.0639 15.3024 33.4865 15.3024 33.908 15.3262C35.0407 15.3721 36.1184 15.6323 37.0325 16.3303C37.6199 16.8111 38.0698 17.439 38.3364 18.1502C38.8301 19.3441 38.8959 20.5992 38.821 21.862C38.729 23.165 38.4811 24.4523 38.0826 25.6962C37.6801 27.0197 37.1889 28.3145 36.6121 29.5718C36.0132 30.9115 35.3258 32.2097 34.5546 33.458C33.694 34.8172 32.8289 36.1749 31.9178 37.5004C31.366 38.3055 30.7377 39.0586 30.1171 39.8132C29.4415 40.6351 28.7414 41.4357 28.0444 42.2377C27.6958 42.6372 27.3397 43.029 26.9743 43.4086C26.3522 44.0469 25.7346 44.6913 25.0835 45.2974C24.2198 46.0995 23.3271 46.8709 22.442 47.6515C21.2313 48.6953 19.9549 49.66 18.6206 50.5398C17.2955 51.443 15.8999 52.238 14.4475 52.9169C13.3393 53.4266 12.2142 53.9118 11.0127 54.1629C10.3203 54.3083 9.61713 54.4016 8.9155 54.5026C7.99725 54.6236 7.06342 54.5212 6.19307 54.2042C4.87542 53.7557 3.9552 52.8802 3.49204 51.5531C3.16405 50.683 2.99175 49.7617 2.98302 48.8317C2.98302 48.5255 2.9555 48.2194 2.9341 47.9056C2.92193 47.8427 2.90191 47.7815 2.87449 47.7235C2.87449 47.7235 2.38381 46.9704 2.11019 46.5449C2.00472 47.0577 1.90077 47.5276 1.81364 48.0021C1.56295 49.349 1.46818 50.82 1.6776 52.1792C1.8488 53.2873 2.26763 54.4093 2.99983 55.268C3.9873 56.4251 5.29273 56.9746 6.777 57.1705L7.52906 57.2716L8.66328 57.267Z" fill="#D2F4FB"/>
<path d="M7.95738 35.0224C11.12 30.0996 15.0032 25.6804 19.4769 21.9126C19.1712 21.934 18.8654 21.9202 18.601 22.1774C17.8764 22.8845 17.1121 23.555 16.3891 24.259C15.6432 24.9892 14.9217 25.7453 14.1956 26.4984C13.8348 26.8749 13.4833 27.2601 13.1408 27.654C12.5722 28.3091 12.0005 28.9642 11.4594 29.6438C10.7241 30.5545 9.99805 31.4806 9.29031 32.4097C8.83173 33.0051 8.40067 33.6173 8.00935 34.2541C7.88706 34.4515 7.93292 34.7546 7.90234 35.0087L7.96196 35.0286" fill="#D2F3FB"/>
</svg>
