<svg width="13" height="12" viewBox="0 0 13 12" fill="none" xmlns="http://www.w3.org/2000/svg">
<path d="M11.5329 5.06676V10.4001C11.5329 10.9334 11.0663 11.4001 10.5329 11.4001H8.53294C7.99961 11.4001 7.53294 10.9334 7.53294 10.4001V8.46676C7.53294 7.66676 6.86628 7.0001 6.06628 7.0001C5.26628 7.0001 4.59961 7.66676 4.59961 8.46676V10.4001C4.59961 10.9334 4.13294 11.4001 3.59961 11.4001H1.59961C1.06628 11.4001 0.599609 10.9334 0.599609 10.4001V5.06676C0.599609 4.73343 0.732943 4.46676 0.999609 4.26676L5.53294 0.800098C5.86628 0.533431 6.39961 0.533431 6.73294 0.800098L11.2663 4.26676C11.3329 4.46676 11.5329 4.73343 11.5329 5.06676Z" stroke="#363636" stroke-width="1.2" stroke-miterlimit="10" stroke-linecap="round" stroke-linejoin="round"/>
</svg>
