<svg width="82" height="32" viewBox="0 0 82 32" fill="none" xmlns="http://www.w3.org/2000/svg">
<path d="M81.6559 14.5683V23.7479H78.7554V14.6166C78.7554 13.5957 78.6379 12.7232 78.4029 11.9993C78.1713 11.271 77.8341 10.6751 77.3967 10.2116C76.9493 9.74109 76.3916 9.38908 75.7738 9.1873C75.13 8.96395 74.3985 8.85183 73.5794 8.85095C72.8215 8.84497 72.0701 8.99181 71.3705 9.28265C70.699 9.56213 70.0914 9.97456 69.5843 10.495C69.0638 11.0315 68.6574 11.6675 68.3896 12.3648C68.0908 13.1345 67.9421 13.9541 67.9515 14.7795V23.7479H65.0781V6.81163H67.4583L67.7026 9.11778C68.0647 8.71632 68.4648 8.35068 68.8973 8.02595C69.3616 7.67566 69.8628 7.37703 70.3921 7.13541C70.9406 6.88111 71.5138 6.68344 72.1026 6.54546C72.7114 6.40051 73.3352 6.32806 73.9611 6.32961C76.5577 6.32961 78.4899 7.02307 79.7576 8.40998C81.0187 9.80572 81.6553 11.853 81.6553 14.5676" fill="#141515"/>
<path d="M57.9005 1.76189C57.8975 1.529 57.9432 1.29804 58.0346 1.08372C58.1261 0.869411 58.2612 0.676442 58.4315 0.517111C58.7893 0.17546 59.2599 0 59.846 0C60.4321 0 60.908 0.17546 61.2724 0.517111C61.4445 0.675414 61.5814 0.868023 61.6741 1.08246C61.7668 1.29689 61.8134 1.52837 61.8107 1.76189C61.8144 1.99848 61.7684 2.23323 61.6757 2.45103C61.583 2.66883 61.4456 2.86486 61.2724 3.02653C60.9073 3.36553 60.4294 3.54165 59.8281 3.54165C59.2672 3.54165 58.7992 3.36553 58.4422 3.02653C58.2679 2.86565 58.1298 2.66977 58.0369 2.4518C57.944 2.23382 57.8984 1.99869 57.9032 1.76189" fill="#6EC6D9"/>
<path d="M61.2761 6.81201H58.3828V23.7482H61.2761V6.81201Z" fill="#141515"/>
<path d="M55.4004 6.03097H57.2981L57.2802 8.10405H55.9527C55.5419 8.1032 55.1353 8.18611 54.7579 8.34771C54.4009 8.49621 54.0582 8.6766 53.7337 8.88667C54.142 9.40832 54.4632 9.99232 54.6849 10.6161C54.9068 11.2382 55.0191 11.8939 55.0168 12.5541C55.0201 13.4418 54.8242 14.3189 54.4433 15.1211C54.0587 15.9225 53.508 16.6334 52.8277 17.2068C52.1361 17.7895 51.3011 18.2563 50.3294 18.5972C49.3576 18.9382 48.2837 19.1144 47.1062 19.1144C46.2657 19.1199 45.428 19.0187 44.6131 18.8131C43.8807 18.6287 43.1759 18.3486 42.517 17.9802C42.2725 18.2701 42.0841 18.6028 41.9615 18.9614C41.8485 19.2703 41.7888 19.596 41.7849 19.9248C41.7849 20.3088 41.8758 20.6154 42.067 20.8312C42.258 21.0477 42.5 21.2134 42.7712 21.3132C43.0644 21.4194 43.3708 21.4845 43.6819 21.5066C43.9992 21.5238 44.2886 21.5337 44.5448 21.5337H49.0908C51.2869 21.5337 52.972 21.9246 54.1459 22.7063C55.3281 23.4889 55.9142 24.6006 55.9142 26.0513C55.9215 26.8961 55.7036 27.7276 55.2829 28.4608C54.8367 29.2139 54.2237 29.8553 53.4908 30.3359C52.7222 30.8594 51.798 31.2659 50.7183 31.5555C49.6338 31.8521 48.4363 31.9998 47.1102 31.9998C45.9476 32.0043 44.7871 31.9037 43.6427 31.6992C42.5635 31.5005 41.6196 31.1821 40.8072 30.7523C39.9948 30.3226 39.3582 29.7711 38.8923 29.0911C38.4263 28.4111 38.1934 27.608 38.1934 26.6539C38.1948 26.2966 38.2561 25.9422 38.3746 25.6051C38.5024 25.258 38.6641 24.9242 38.8571 24.6086C39.0585 24.2861 39.2906 23.9836 39.5501 23.7055C39.8014 23.4299 40.0703 23.1709 40.3552 22.9301C39.4591 22.323 39.0038 21.4735 39.0038 20.3902C39.0089 19.6783 39.1868 18.9781 39.5222 18.3496C39.8516 17.7064 40.2788 17.1178 40.7886 16.6049C40.296 16.0563 39.9034 15.426 39.6284 14.7424C39.3579 14.0446 39.2215 13.3023 39.2262 12.5541C39.221 11.6733 39.4171 10.8029 39.7996 10.009C40.1817 9.20449 40.7273 8.48812 41.4019 7.90541C42.1348 7.2822 42.9787 6.8022 43.8897 6.49048C44.8632 6.13735 45.9367 5.96078 47.1102 5.96078C48.0289 5.95313 48.944 6.07665 49.8276 6.3276C50.6205 6.5558 51.3764 6.89628 52.0724 7.33864C52.243 7.19761 52.4341 7.04996 52.6631 6.89172C52.9043 6.73119 53.1585 6.591 53.4231 6.4726C53.7174 6.33699 54.0242 6.23012 54.3391 6.15346C54.6867 6.0693 55.0434 6.02815 55.4011 6.03097H55.4004ZM48.6806 23.6949H43.4197C42.995 23.6968 42.5709 23.6649 42.1513 23.5995C41.7652 23.9439 41.43 24.3412 41.1557 24.7794C40.8649 25.247 40.7145 25.7878 40.7222 26.338C40.7222 26.9876 40.8935 27.5298 41.2333 27.9642C41.5732 28.3985 42.0298 28.7395 42.6146 28.9958C43.1994 29.252 43.8697 29.4248 44.637 29.5327C45.4467 29.6432 46.2631 29.6969 47.0803 29.6936C47.9047 29.7027 48.7271 29.6091 49.5282 29.4149C50.1882 29.2604 50.8218 29.0099 51.4086 28.6713C51.929 28.3548 52.3379 27.9814 52.6186 27.5457C52.8902 27.1373 53.0362 26.6586 53.0388 26.1685C53.0388 25.5786 52.8954 25.1264 52.606 24.7979C52.309 24.4654 51.9338 24.2117 51.5142 24.0597C51.0589 23.8872 50.5808 23.7824 50.0951 23.7485C49.5846 23.7134 49.1114 23.6909 48.6813 23.6909L48.6806 23.6949ZM42.0378 12.5362C42.0326 13.1457 42.167 13.7483 42.4307 14.2981C42.6834 14.8397 43.0489 15.3214 43.5027 15.7111C43.9778 16.1222 44.5254 16.4414 45.1176 16.6526C45.7625 16.8828 46.4432 16.9973 47.1281 16.991C47.8154 16.9967 48.4983 16.8822 49.1459 16.6526C49.7366 16.4396 50.2833 16.1205 50.7588 15.7111C51.2103 15.3187 51.5759 14.8377 51.8328 14.2981C52.0968 13.7484 52.2312 13.1458 52.2257 12.5362C52.2295 11.9358 52.0951 11.3426 51.8328 10.8022C51.5723 10.269 51.2071 9.79343 50.7588 9.40378C50.2852 8.99241 49.7379 8.67388 49.1459 8.4649C48.4988 8.23298 47.8157 8.11731 47.1281 8.12325C46.4429 8.11668 45.762 8.23238 45.1176 8.4649C44.5241 8.67204 43.9759 8.99075 43.5027 9.40378C43.0519 9.79138 42.6869 10.2683 42.4307 10.8042C42.1687 11.3447 42.0343 11.9379 42.0378 12.5382" fill="#141515"/>
<path d="M32.7658 1.76189C32.7627 1.52898 32.8083 1.29798 32.8997 1.08365C32.9911 0.86932 33.1264 0.676366 33.2968 0.517111C33.6539 0.17546 34.1245 0 34.7106 0C35.2966 0 35.7726 0.17546 36.1376 0.517111C36.3097 0.675414 36.4466 0.868023 36.5393 1.08246C36.6321 1.29689 36.6786 1.52837 36.6759 1.76189C36.6796 1.99848 36.6336 2.23323 36.5409 2.45103C36.4482 2.66883 36.3108 2.86486 36.1376 3.02653C35.7726 3.36553 35.2973 3.54165 34.6933 3.54165C34.1324 3.54165 33.6638 3.36553 33.3067 3.02653C33.1326 2.86561 32.9945 2.66972 32.9017 2.45174C32.809 2.23376 32.7635 1.99865 32.7684 1.76189" fill="#6EC6D9"/>
<path d="M36.1406 6.81201H33.25V23.7482H36.1406V6.81201Z" fill="#141515"/>
<path d="M31.5796 6.81201V9.3691H29.7152C28.9091 9.35953 28.1075 9.48786 27.3449 9.74849C26.6558 9.98886 26.0292 10.3798 25.511 10.8926C24.9877 11.4319 24.5847 12.0754 24.3282 12.781C24.0441 13.5285 23.908 14.4025 23.908 15.3937V23.7482H21.0273V6.81201H23.4102L23.7042 9.4373C24.2956 8.68381 25.0855 8.05414 26.0672 7.55954C27.0489 7.06494 28.2257 6.81201 29.5851 6.81201H31.5796Z" fill="#141515"/>
<path d="M2.89882 15.2795C2.88757 16.1586 3.05699 17.0306 3.39663 17.8419C3.71273 18.6026 4.17626 19.2936 4.76064 19.8752C5.34098 20.4551 6.03118 20.914 6.79105 21.2253C8.38781 21.8683 10.1724 21.8683 11.7692 21.2253C12.5323 20.9173 13.2261 20.4603 13.8097 19.8811C14.3933 19.3019 14.855 18.6122 15.1676 17.8525C15.5046 17.0366 15.6748 16.1618 15.668 15.2795C15.6745 14.4029 15.5043 13.534 15.1676 12.7244C14.8484 11.9586 14.3815 11.2628 13.7936 10.6765C12.8791 9.80023 11.7296 9.20709 10.4843 8.96879C9.23897 8.73049 7.95109 8.85723 6.77644 9.33369C6.0208 9.64513 5.3337 10.1013 4.754 10.6765C4.15596 11.2838 3.68441 12.0032 3.36657 12.7932C3.04872 13.5833 2.89087 14.4283 2.90214 15.2795H2.89882ZM0.00354179 15.2795C-0.00378963 14.1011 0.225404 12.9331 0.67762 11.8444C1.12984 10.7557 1.79592 9.7683 2.63664 8.9404C3.48213 8.12006 4.47944 7.47151 5.57307 7.03086C7.93762 6.10039 10.5682 6.10039 12.9327 7.03086C14.0272 7.46957 15.0246 8.11835 15.8685 8.9404C16.7147 9.7666 17.3872 10.7528 17.8467 11.8414C18.3062 12.93 18.5435 14.099 18.5447 15.2802C18.5458 16.4613 18.3109 17.6308 17.8535 18.7203C17.3962 19.8098 16.7256 20.7973 15.8811 21.6252C15.0305 22.445 14.0294 23.0935 12.9327 23.5354C10.5682 24.4659 7.93761 24.4659 5.57307 23.5354C4.48783 23.1011 3.49916 22.4574 2.66372 21.6413C1.82828 20.8252 1.16247 19.8527 0.704462 18.7794C0.231387 17.6745 -0.00834634 16.4842 0.000221824 15.2828" fill="#141515"/>
<path d="M3.76105 24.7722C3.78558 24.7634 3.81063 24.7561 3.83605 24.7504C4.16793 24.7047 4.4998 24.6749 4.82438 24.6113C5.35749 24.5009 5.8784 24.3383 6.37954 24.126C6.95843 23.8963 7.51798 23.6209 8.05286 23.3023C8.45443 23.056 8.86131 22.817 9.24761 22.5515C9.63391 22.286 10.0275 21.994 10.4025 21.6967C10.753 21.4199 11.0933 21.1306 11.4234 20.8286C11.8389 20.4473 12.2484 20.0573 12.6434 19.6547C12.9613 19.3296 13.2666 18.9926 13.5547 18.639C13.9483 18.157 14.3372 17.669 14.6963 17.1619C15.0992 16.5924 15.4716 16.0018 15.8459 15.4139C15.9921 15.1758 16.1261 14.9305 16.2475 14.6789C16.4679 14.2386 16.7009 13.8036 16.8887 13.3501C17.115 12.8012 17.3208 12.2417 17.4967 11.6743C17.6361 11.224 17.725 10.7572 17.8213 10.2944C17.8684 10.0693 17.8817 9.83754 17.9109 9.60845C17.9109 9.5972 17.9248 9.58726 17.9315 9.57667V8.48815C17.9102 8.35573 17.8923 8.22331 17.8651 8.09089C17.7715 7.61416 17.6135 7.16392 17.3022 6.78056C16.9706 6.38106 16.5133 6.10523 16.0046 5.99794C15.9268 5.9788 15.8479 5.96487 15.7683 5.95623C15.6853 5.94762 15.6017 5.94696 15.5187 5.9463C15.3196 5.9463 15.1251 5.94299 14.9286 5.9463C14.7295 5.95915 14.5316 5.98682 14.3366 6.02906C13.8918 6.11672 13.456 6.24527 13.035 6.41309C12.944 6.44752 12.8538 6.48526 12.7429 6.52962C12.9308 6.60576 13.2699 6.73818 13.2699 6.73818C13.2699 6.73818 13.412 6.71832 13.4843 6.70971C13.714 6.68124 13.943 6.6435 14.1733 6.6296C14.3563 6.61933 14.5398 6.61933 14.7229 6.6296C15.2147 6.64946 15.6827 6.76202 16.0796 7.06395C16.3347 7.27192 16.53 7.54354 16.6458 7.8512C16.8602 8.36765 16.8887 8.91058 16.8562 9.45683C16.8162 10.0205 16.7086 10.5774 16.5356 11.1154C16.3608 11.688 16.1475 12.248 15.8971 12.7919C15.637 13.3714 15.3385 13.933 15.0036 14.473C14.63 15.061 14.2543 15.6483 13.8587 16.2217C13.6191 16.5699 13.3463 16.8957 13.0768 17.2221C12.7834 17.5777 12.4794 17.9239 12.1767 18.2709C12.0254 18.4437 11.8707 18.6132 11.7121 18.7774C11.442 19.0535 11.1738 19.3323 10.8911 19.5945C10.516 19.9414 10.1284 20.2751 9.74409 20.6128C9.21837 21.0643 8.6641 21.4816 8.08472 21.8622C7.50934 22.2529 6.90337 22.5968 6.27268 22.8905C5.79146 23.111 5.30294 23.3208 4.78123 23.4294C4.48056 23.4923 4.17523 23.5327 3.87057 23.5764C3.47185 23.6287 3.06636 23.5845 2.68843 23.4473C2.11628 23.2533 1.7167 22.8746 1.51558 22.3005C1.37316 21.9241 1.29835 21.5256 1.29455 21.1233C1.29455 20.9909 1.28261 20.8584 1.27331 20.7227C1.26803 20.6955 1.25933 20.669 1.24743 20.6439C1.24743 20.6439 1.03437 20.3182 0.915554 20.1341C0.869755 20.3559 0.82462 20.5592 0.786787 20.7644C0.677932 21.3471 0.636778 21.9834 0.727712 22.5713C0.802052 23.0507 0.983919 23.536 1.30186 23.9075C1.73064 24.408 2.29748 24.6457 2.94198 24.7305L3.26855 24.7742L3.76105 24.7722Z" fill="#6EC6D9"/>
<path d="M3.45554 15.15C4.82883 13.0205 6.51498 11.1089 8.45755 9.479C8.3248 9.48827 8.19205 9.48231 8.07723 9.59355C7.76261 9.89945 7.43073 10.1895 7.11678 10.494C6.79287 10.8099 6.47958 11.1369 6.1643 11.4627C6.00765 11.6256 5.85499 11.7922 5.70631 11.9626C5.4594 12.246 5.21115 12.5294 4.97619 12.8233C4.65692 13.2173 4.34164 13.6179 4.03433 14.0198C3.8352 14.2774 3.64802 14.5422 3.4781 14.8176C3.425 14.903 3.44492 15.0341 3.43164 15.1441L3.45753 15.1527" fill="#6EC6D9"/>
</svg>
