<svg width="48" height="103" viewBox="0 0 48 103" fill="none" xmlns="http://www.w3.org/2000/svg">
<g opacity="0.5">
<path d="M0.5 37C0.5 24.0213 11.0213 13.5 24 13.5C36.9787 13.5 47.5 24.0213 47.5 37V78.1428C47.5 91.1215 36.9787 101.643 24 101.643C11.0213 101.643 0.5 91.1216 0.5 78.1429V37Z" stroke="black"/>
<path d="M24.5 65.2856C24.5 65.0095 24.2761 64.7856 24 64.7856C23.7239 64.7856 23.5 65.0095 23.5 65.2856H24.5ZM23.5 84.1428C23.5 84.4189 23.7239 84.6428 24 84.6428C24.2761 84.6428 24.5 84.4189 24.5 84.1428H23.5ZM23.5 65.2856V84.1428H24.5V65.2856H23.5Z" fill="black"/>
<path d="M24.0006 1L28.2863 5.28571M24.0006 1L19.7148 5.28571M24.0006 1V27.5714M24.0006 47.2857L28.2863 43.8571M24.0006 47.2857L19.7148 43.8571M24.0006 47.2857V27.5714M24.0006 27.5714H19.7148M24.0006 27.5714H28.2863" stroke="black" stroke-linecap="round" stroke-linejoin="round"/>
<path d="M41.1429 77.2856C41.1429 86.7534 33.4677 94.4285 24 94.4285" stroke="black" stroke-linecap="round"/>
</g>
</svg>
