<svg width="1920" height="896" viewBox="0 0 1920 896" fill="none" xmlns="http://www.w3.org/2000/svg">
<g opacity="0.15" clip-path="url(#clip0_500_10060)">
<path d="M1848 464.07V664.485H1784.92V465.126C1784.92 442.835 1782.36 423.787 1777.25 407.982C1772.21 392.081 1764.88 379.07 1755.37 368.951C1745.64 358.679 1733.51 350.994 1720.07 346.588C1706.06 341.712 1690.16 339.264 1672.34 339.245C1655.86 339.114 1639.51 342.32 1624.3 348.67C1609.69 354.772 1596.48 363.776 1585.45 375.139C1574.12 386.852 1565.29 400.739 1559.46 415.962C1552.96 432.767 1549.73 450.661 1549.93 468.682V664.485H1487.44V294.721H1539.21L1544.52 345.071C1552.4 336.306 1561.1 328.323 1570.51 321.233C1580.6 313.585 1591.5 307.065 1603.02 301.79C1614.95 296.238 1627.41 291.922 1640.22 288.91C1653.46 285.745 1667.03 284.163 1680.64 284.197C1737.12 284.197 1779.14 299.337 1806.72 329.617C1834.15 360.09 1847.99 404.787 1847.99 464.056" fill="#DADADA"/>
<path d="M1331.34 188.227C1331.27 182.645 1332.26 177.11 1334.25 171.973C1336.23 166.837 1339.17 162.212 1342.86 158.394C1350.63 150.205 1360.84 146 1373.57 146C1386.29 146 1396.62 150.205 1404.53 158.394C1408.26 162.188 1411.23 166.804 1413.25 171.943C1415.26 177.082 1416.27 182.63 1416.21 188.227C1416.29 193.897 1415.29 199.524 1413.28 204.744C1411.27 209.964 1408.29 214.662 1404.53 218.536C1396.6 226.661 1386.23 230.882 1373.18 230.882C1361 230.882 1350.84 226.661 1343.09 218.536C1339.31 214.681 1336.31 209.986 1334.3 204.762C1332.28 199.538 1331.29 193.902 1331.39 188.227" fill="#F3F3F3"/>
<path d="M1404.75 294.721H1341.82V664.485H1404.75V294.721Z" fill="#DADADA"/>
<path d="M1276.95 277.677H1318.23L1317.84 322.938H1288.96C1280.03 322.92 1271.19 324.73 1262.98 328.258C1255.21 331.5 1247.76 335.439 1240.7 340.025C1249.58 351.414 1256.57 364.164 1261.39 377.783C1266.22 391.365 1268.66 405.68 1268.61 420.095C1268.68 439.475 1264.42 458.626 1256.13 476.14C1247.77 493.637 1235.79 509.157 1221 521.676C1205.95 534.397 1187.79 544.588 1166.66 552.033C1145.52 559.478 1122.16 563.323 1096.55 563.323C1078.27 563.445 1060.05 561.235 1042.33 556.746C1026.4 552.719 1011.07 546.605 996.739 538.56C991.421 544.89 987.323 552.155 984.655 559.984C982.199 566.728 980.901 573.839 980.815 581.017C980.815 589.401 982.793 596.094 986.951 600.807C991.105 605.534 996.369 609.151 1002.27 611.331C1008.64 613.649 1015.31 615.07 1022.08 615.552C1028.98 615.928 1035.27 616.145 1040.84 616.145H1139.72C1187.48 616.145 1224.13 624.678 1249.67 641.746C1275.38 658.832 1288.13 683.104 1288.13 714.776C1288.29 733.219 1283.55 751.374 1274.4 767.381C1264.69 783.825 1251.36 797.828 1235.42 808.319C1218.7 819.749 1198.6 828.625 1175.12 834.947C1151.53 841.423 1125.48 844.647 1096.64 844.647C1071.35 844.747 1046.11 842.55 1021.22 838.084C997.749 833.747 977.221 826.794 959.55 817.412C941.88 808.03 928.035 795.989 917.901 781.143C907.766 766.297 902.699 748.762 902.699 727.931C902.731 720.132 904.063 712.393 906.64 705.033C909.422 697.455 912.937 690.169 917.136 683.277C921.517 676.236 926.564 669.633 932.208 663.559C937.673 657.544 943.523 651.89 949.719 646.632C930.23 633.376 920.326 614.829 920.326 591.179C920.437 575.635 924.306 560.348 931.601 546.627C938.766 532.583 948.057 519.734 959.146 508.536C948.432 496.557 939.892 482.795 933.911 467.872C928.028 452.637 925.06 436.429 925.162 420.095C925.051 400.865 929.317 381.861 937.636 364.528C945.945 346.964 957.813 331.324 972.485 318.602C988.425 304.995 1006.78 294.515 1026.59 287.71C1047.77 280 1071.12 276.145 1096.64 276.145C1116.62 275.978 1136.52 278.675 1155.74 284.154C1172.99 289.136 1189.43 296.57 1204.57 306.227C1208.28 303.148 1212.44 299.925 1217.42 296.47C1222.66 292.965 1228.19 289.904 1233.95 287.319C1240.35 284.359 1247.02 282.025 1253.87 280.352C1261.43 278.514 1269.19 277.616 1276.97 277.677H1276.95ZM1130.8 663.328H1016.37C1007.14 663.371 997.91 662.675 988.784 661.247C980.388 668.766 973.097 677.439 967.13 687.007C960.805 697.215 957.533 709.024 957.702 721.036C957.702 735.217 961.427 747.056 968.819 756.539C976.21 766.022 986.142 773.467 998.861 779.061C1011.58 784.655 1026.16 788.428 1042.85 790.785C1060.46 793.196 1078.22 794.37 1095.99 794.297C1113.92 794.496 1131.81 792.452 1149.23 788.211C1163.59 784.839 1177.37 779.369 1190.13 771.978C1201.45 765.068 1210.34 756.915 1216.45 747.403C1222.35 738.485 1225.53 728.035 1225.59 717.335C1225.59 704.455 1222.47 694.581 1216.17 687.411C1209.72 680.151 1201.55 674.612 1192.43 671.293C1182.53 667.528 1172.13 665.239 1161.56 664.499C1150.46 663.733 1140.17 663.241 1130.81 663.241L1130.8 663.328ZM986.316 419.705C986.203 433.012 989.126 446.168 994.862 458.172C1000.36 469.996 1008.31 480.512 1018.18 489.021C1028.51 497.995 1040.42 504.966 1053.3 509.577C1067.33 514.601 1082.13 517.102 1097.03 516.964C1111.98 517.088 1126.83 514.588 1140.92 509.577C1153.77 504.926 1165.65 497.959 1176 489.021C1185.82 480.454 1193.77 469.953 1199.36 458.172C1205.1 446.171 1208.02 433.012 1207.9 419.705C1207.99 406.597 1205.06 393.644 1199.36 381.846C1193.69 370.205 1185.75 359.822 1176 351.315C1165.7 342.334 1153.79 335.379 1140.92 330.817C1126.84 325.753 1111.98 323.228 1097.03 323.358C1082.13 323.214 1067.32 325.74 1053.3 330.817C1040.39 335.339 1028.47 342.297 1018.18 351.315C1008.37 359.777 1000.43 370.189 994.862 381.889C989.163 393.69 986.24 406.641 986.316 419.749" fill="#DADADA"/>
<path d="M784.679 188.227C784.611 182.645 785.602 177.109 787.586 171.972C789.571 166.835 792.506 162.21 796.205 158.394C803.956 150.205 814.171 146 826.893 146C839.615 146 849.945 150.205 857.869 158.394C861.605 162.188 864.576 166.804 866.589 171.943C868.602 177.082 869.612 182.63 869.554 188.227C869.634 193.897 868.636 199.524 866.623 204.744C864.611 209.964 861.629 214.662 857.869 218.536C849.945 226.661 839.629 230.882 826.518 230.882C814.344 230.882 804.172 226.661 796.421 218.536C792.64 214.68 789.644 209.985 787.63 204.761C785.616 199.536 784.63 193.901 784.737 188.227" fill="#F3F3F3"/>
<path d="M858.047 294.721H795.176V664.485H858.047V294.721Z" fill="#DADADA"/>
<path d="M758.838 294.721V350.549H718.286C700.755 350.34 683.319 353.142 666.733 358.832C651.745 364.08 638.117 372.614 626.845 383.812C615.465 395.586 606.698 409.636 601.119 425.039C594.94 441.36 591.981 460.442 591.981 482.082V664.485H529.326V294.721H581.153L587.549 352.038C600.412 335.587 617.591 321.84 638.943 311.041C660.295 300.243 685.891 294.721 715.457 294.721H758.838Z" fill="#DADADA"/>
<path d="M135.049 479.596C134.805 498.789 138.489 517.828 145.877 535.54C152.752 552.148 162.834 567.235 175.544 579.933C188.166 592.594 203.178 602.613 219.705 609.409C254.435 623.448 293.25 623.448 327.98 609.409C344.579 602.685 359.668 592.708 372.362 580.062C385.055 567.416 395.096 552.358 401.895 535.771C409.225 517.959 412.926 498.86 412.78 479.596C412.921 460.458 409.219 441.488 401.895 423.811C394.952 407.092 384.799 391.901 372.011 379.099C352.12 359.969 327.12 347.019 300.034 341.816C272.948 336.614 244.936 339.381 219.388 349.783C202.952 356.583 188.008 366.543 175.399 379.099C162.392 392.358 152.136 408.065 145.223 425.314C138.31 442.563 134.877 461.012 135.121 479.596H135.049ZM72.077 479.596C71.9176 453.868 76.9025 428.368 86.7382 404.598C96.5739 380.829 111.061 359.272 129.347 341.196C147.736 323.286 169.428 309.127 193.214 299.506C244.643 279.191 301.858 279.191 353.287 299.506C377.091 309.084 398.786 323.249 417.14 341.196C435.544 359.235 450.171 380.767 460.166 404.533C470.16 428.3 475.321 453.823 475.347 479.611C475.372 505.398 470.262 530.932 460.314 554.718C450.367 578.504 435.783 600.065 417.414 618.14C398.912 636.038 377.14 650.197 353.287 659.845C301.858 680.161 244.643 680.161 193.214 659.845C169.61 650.363 148.107 636.31 129.936 618.492C111.765 600.674 97.2838 579.441 87.322 556.009C77.0327 531.886 71.8185 505.899 72.0048 479.668" fill="#DADADA"/>
<path d="M153.816 686.848C154.35 686.656 154.894 686.496 155.447 686.371C162.666 685.373 169.884 684.723 176.943 683.335C188.539 680.924 199.868 677.375 210.768 672.739C223.359 667.725 235.529 661.712 247.163 654.756C255.897 649.378 264.747 644.16 273.149 638.363C281.551 632.566 290.112 626.191 298.268 619.701C305.891 613.658 313.292 607.341 320.472 600.749C329.509 592.423 338.416 583.908 347.006 575.119C353.921 568.021 360.562 560.663 366.828 552.944C375.388 542.42 383.848 531.766 391.658 520.693C400.421 508.261 408.52 495.367 416.663 482.53C419.842 477.332 422.757 471.976 425.397 466.484C430.19 456.871 435.257 447.374 439.342 437.471C444.265 425.488 448.741 413.272 452.566 400.884C455.598 391.054 457.532 380.863 459.626 370.758C460.651 365.843 460.94 360.784 461.575 355.782C461.575 355.536 461.878 355.319 462.022 355.088V331.323C461.56 328.432 461.171 325.54 460.579 322.649C458.543 312.241 455.107 302.411 448.336 294.041C441.124 285.319 431.177 279.297 420.113 276.955C418.422 276.537 416.705 276.232 414.974 276.044C413.169 275.856 411.35 275.842 409.545 275.827C405.214 275.827 400.984 275.755 396.711 275.827C392.38 276.108 388.075 276.712 383.834 277.634C374.159 279.548 364.682 282.355 355.524 286.018C353.546 286.77 351.583 287.594 349.172 288.563C353.257 290.225 360.634 293.116 360.634 293.116C360.634 293.116 363.724 292.682 365.297 292.495C370.292 291.873 375.273 291.049 380.282 290.745C384.264 290.521 388.255 290.521 392.236 290.745C402.933 291.179 413.111 293.637 421.744 300.228C427.292 304.769 431.541 310.699 434.059 317.416C438.722 328.692 439.342 340.545 438.635 352.471C437.766 364.778 435.425 376.936 431.662 388.683C427.861 401.183 423.221 413.411 417.774 425.285C412.117 437.938 405.626 450.199 398.343 461.988C390.215 474.825 382.044 487.647 373.439 500.166C368.228 507.77 362.294 514.882 356.433 522.009C350.052 529.771 343.44 537.332 336.857 544.907C333.566 548.68 330.202 552.38 326.752 555.965C320.876 561.993 315.044 568.079 308.894 573.804C300.737 581.378 292.306 588.664 283.947 596.037C272.513 605.894 260.457 615.006 247.856 623.315C235.341 631.845 222.161 639.352 208.444 645.765C197.977 650.578 187.352 655.161 176.005 657.532C169.465 658.905 162.824 659.787 156.198 660.741C147.526 661.883 138.706 660.916 130.487 657.922C118.042 653.686 109.351 645.418 104.977 632.884C101.88 624.666 100.252 615.966 100.17 607.182C100.17 604.291 99.9099 601.4 99.7078 598.436C99.5928 597.842 99.4037 597.264 99.1448 596.716C99.1448 596.716 94.5106 589.604 91.9265 585.585C90.9304 590.428 89.9487 594.866 89.1258 599.347C86.7582 612.068 85.8631 625.96 87.8409 638.797C89.4578 649.263 93.4134 659.859 100.329 667.969C109.655 678.897 121.983 684.087 136.001 685.937L143.104 686.891L153.816 686.848Z" fill="#F3F3F3"/>
<path d="M147.147 476.762C177.016 430.27 213.69 388.533 255.941 352.949C253.053 353.151 250.166 353.021 247.668 355.45C240.826 362.128 233.607 368.46 226.779 375.109C219.734 382.005 212.92 389.146 206.062 396.258C202.655 399.814 199.335 403.452 196.101 407.172C190.731 413.359 185.331 419.546 180.221 425.965C173.277 434.566 166.419 443.312 159.735 452.086C155.404 457.71 151.333 463.492 147.638 469.506C146.483 471.37 146.916 474.233 146.627 476.632L147.19 476.82" fill="#F3F3F3"/>
</g>
<g opacity="0.5">
<ellipse cx="771.216" cy="391.996" rx="133.688" ry="428.884" transform="rotate(32.7558 771.216 391.996)" stroke="url(#paint0_linear_500_10060)"/>
<ellipse cx="891.075" cy="449.617" rx="133.688" ry="428.884" transform="rotate(32.7557 891.075 449.617)" stroke="url(#paint1_linear_500_10060)"/>
<ellipse cx="1032.83" cy="494.562" rx="133.688" ry="428.884" transform="rotate(30.084 1032.83 494.562)" stroke="url(#paint2_linear_500_10060)"/>
</g>
<defs>
<linearGradient id="paint0_linear_500_10060" x1="607.055" y1="413.95" x2="984.457" y2="411.752" gradientUnits="userSpaceOnUse">
<stop offset="0.229167" stop-color="#3F94AF" stop-opacity="0.17"/>
<stop offset="1" stop-color="#3F94AF"/>
</linearGradient>
<linearGradient id="paint1_linear_500_10060" x1="726.915" y1="471.571" x2="1104.32" y2="469.373" gradientUnits="userSpaceOnUse">
<stop offset="0.229167" stop-color="#3F94AF" stop-opacity="0.17"/>
<stop offset="1" stop-color="#3F94AF"/>
</linearGradient>
<linearGradient id="paint2_linear_500_10060" x1="868.668" y1="516.515" x2="1246.07" y2="514.317" gradientUnits="userSpaceOnUse">
<stop offset="0.229167" stop-color="#3F94AF" stop-opacity="0.17"/>
<stop offset="1" stop-color="#3F94AF"/>
</linearGradient>
<clipPath id="clip0_500_10060">
<rect width="1776" height="698.647" fill="white" transform="translate(72 146)"/>
</clipPath>
</defs>
</svg>
