<svg width="6" height="6" viewBox="0 0 6 6" fill="none" xmlns="http://www.w3.org/2000/svg">
<path d="M4.90675 5.4607C5.13624 5.29299 5.18128 4.96857 5.00615 4.74469L3.80679 3.21149L5.51729 2.63725C5.78328 2.54795 5.92559 2.25904 5.83425 1.99374C5.7439 1.73129 5.45876 1.59085 5.19563 1.6792L3.5248 2.24021V0.532637C3.5248 0.23847 3.28633 0 2.99217 0C2.698 0 2.45953 0.23847 2.45953 0.532637V2.22454L0.803498 1.67659C0.540513 1.58957 0.256454 1.73026 0.166285 1.99218C0.0747132 2.25817 0.217746 2.54778 0.484625 2.63674L2.20888 3.21149L1.00952 4.74469C0.834386 4.96857 0.879424 5.29299 1.10892 5.4607C1.32882 5.62139 1.63668 5.57787 1.80341 5.3625L3.00783 3.80679L4.21226 5.36251C4.37899 5.57787 4.68685 5.62139 4.90675 5.4607Z" fill="#EA0C41"/>
</svg>
