<svg width="74" height="69" viewBox="0 0 74 69" fill="none" xmlns="http://www.w3.org/2000/svg">
<g opacity="0.08">
<path d="M64.3246 13.1212C60.0244 17.3223 58.9815 20.8956 58.9815 26.9039C59.1185 31.0165 61.3662 34.4954 64.6829 36.5543C74 42.3379 74 48.292 74 53.2226C74 62.2735 67.4739 68.4444 58.9815 68.4444C50.4892 68.4444 43.6047 59.4092 43.6047 50.3582V43.6747C43.6047 32.3963 46.2082 17.7786 51.4152 11.1851C54.958 6.58076 59.4049 3.10103 64.7557 0.745903C68.8262 -1.04573 70.8217 0.386796 70.8217 5.08048C70.8217 8.47948 66.833 10.8847 64.3246 13.1212Z" fill="#3F94AF"/>
<path d="M20.7199 13.1212C16.4197 17.3223 15.3768 20.8956 15.3768 26.9039C15.5138 31.0165 17.7614 34.4954 21.0782 36.5543C30.3953 42.3379 30.3953 48.292 30.3953 53.2226C30.3953 62.2735 23.8692 68.4444 15.3768 68.4444C6.88443 68.4444 0 59.4092 0 50.3582V43.6747C0 32.3963 2.6035 17.7786 7.81046 11.1851C11.3533 6.58076 15.8001 3.10103 21.1509 0.745903C25.2215 -1.04573 27.2169 0.386796 27.2169 5.08048C27.2169 8.47948 23.2283 10.8847 20.7199 13.1212Z" fill="#3F94AF"/>
</g>
</svg>
