<svg width="88" height="77" viewBox="0 0 88 77" fill="none" xmlns="http://www.w3.org/2000/svg">
<g opacity="0.24">
<path d="M76.4941 15.0697C71.3804 19.7345 70.1402 23.7023 70.1402 30.3738C70.3031 34.9403 72.976 38.8033 76.9203 41.0895C88 47.5116 88 54.1229 88 59.5978C88 69.6479 80.2393 76.5 70.1402 76.5C60.0412 76.5 51.8543 66.4673 51.8543 56.4172V48.9959C51.8543 36.4725 54.9503 20.2412 61.1424 12.9198C65.3555 7.8072 70.6436 3.94335 77.0068 1.32824C81.8474 -0.661169 84.2204 0.929494 84.2204 6.14132C84.2204 9.91553 79.4771 12.5862 76.4941 15.0697Z" fill="white"/>
<path d="M24.6398 15.0697C19.5261 19.7345 18.2859 23.7023 18.2859 30.3738C18.4488 34.9403 21.1217 38.8033 25.066 41.0895C36.1457 47.5116 36.1457 54.1229 36.1457 59.5978C36.1457 69.6479 28.385 76.5 18.2859 76.5C8.18689 76.5 0 66.4673 0 56.4172V48.9959C0 36.4725 3.09605 20.2412 9.28811 12.9198C13.5012 7.8072 18.7894 3.94335 25.1525 1.32824C29.9931 -0.661169 32.3661 0.929494 32.3661 6.14132C32.3661 9.91553 27.6228 12.5862 24.6398 15.0697Z" fill="white"/>
</g>
</svg>
